<svg width="100" height="100" viewBox="0 0 100 100" fill="none" xmlns="http://www.w3.org/2000/svg">
<g clip-path="url(#clip0_3663_14081)">
<rect width="100" height="100" rx="50" fill="white"/>
<rect width="100" height="100" rx="50" fill="url(#paint0_radial_3663_14081)"/>
<g opacity="0.9" style="mix-blend-mode:multiply">
<circle cx="50" cy="50" r="52" fill="url(#paint1_radial_3663_14081)"/>
</g>
<path d="M68.2342 50.7526C67.2365 57.0505 66.8211 64.113 64.3015 70.0174C63.8081 71.1617 63.1364 72.2568 62.2783 73.1598C60.7332 74.7851 59.1876 76.4676 57.6401 78.0905C56.6432 79.1359 55.4149 79.9998 53.607 79.9998C51.7992 79.9998 48.7803 79.9329 47.1757 79.9329C45.5711 79.9329 44.6572 79.0786 43.7063 78.0905C42.1243 76.4463 40.5556 74.8167 38.9862 73.1598C38.116 72.2404 37.4491 71.1867 36.963 70.0174C34.3654 63.818 33.6148 56.531 32.1942 49.9881C33.0177 39.1562 41.2068 29.7361 49.1788 29.7532C53.8775 29.7633 69.7475 31.3205 68.2342 50.7526Z" fill="url(#paint2_radial_3663_14081)"/>
<path d="M68.5429 39.6808C68.4447 38.6668 68.3186 37.6574 68.1737 36.6528C68.4167 36.9145 68.6644 37.1715 68.9074 37.4331C68.7158 35.6481 68.0803 33.9145 67.0756 32.4239C67.3934 32.2977 67.7999 32.522 67.8606 32.8585C67.4354 29.952 65.5009 27.3071 62.8561 26.0268C62.5523 25.8819 62.2159 25.7558 61.8888 25.8305C61.8701 25.7418 61.8561 25.6623 61.828 25.5689C61.5897 24.6997 59.0804 19.6344 52.7628 20.354C53.2581 20.6811 53.5618 20.9288 54.0571 21.2559C51.9497 20.4334 48.8376 19.1951 46.5526 19.9521C46.9965 20.0269 48.118 19.9428 48.3283 20.34C45.0994 19.9241 39.9452 21.1951 37.7864 22.8446C38.0714 23.0082 38.3985 23.0642 38.7817 23.0549C36.464 23.4988 33.7958 24.9427 32.2772 27.4473C32.9407 27.4006 34.0248 26.4287 36.5481 26.2464C28.8426 26.9894 29.9407 35.6808 29.9407 35.6808C30.7959 33.8912 31.7024 32.6388 32.5762 32.2697C32.6089 32.6482 28.6557 35.2136 30.2912 40.9938C30.5295 40.863 30.7725 39.7135 31.0809 39.3069C30.3426 41.4564 31.6744 48.5217 31.6977 48.704C32.151 52.3161 34.7836 73.6388 35.1714 74.2883C35.6761 75.1341 41.9853 82.0604 43.0507 82.481C45.9759 83.6445 55.5808 82.9762 56.8845 82.5043C58.0854 82.0697 63.8848 75.5827 65.3847 74.2883C65.5903 74.1108 68.4821 51.2039 68.5382 50.5264C68.5382 50.517 68.5382 50.5077 68.5382 50.4984C69.2158 44.9284 69.113 43.3115 68.5382 39.6808H68.5429ZM52.3628 72.78C51.1618 72.9856 51.5964 70.5791 51.1899 70.3875C50.9749 70.2847 49.1393 70.3922 48.9057 70.3875C48.5505 70.3782 49.0871 72.9669 47.8582 72.9389C44.7938 72.9389 41.2723 69.8064 41.3377 67.7457C41.4172 65.2691 45.4638 63.7505 50.417 63.9093C55.3702 64.0729 59.2346 65.0916 59.1505 67.5682C59.0804 69.6429 56.1945 72.1258 52.3628 72.78ZM61.8374 64.0635C61.4355 64.0822 56.3749 61.5215 54.945 61.2599C53.6039 61.0169 52.0058 62.3439 50.646 62.2598C49.1741 62.1711 47.1227 61.0309 45.6554 61.1804C44.0433 61.344 39.3284 64.3439 38.8892 64.1804C32.0809 58.4861 32.548 50.3025 32.9878 45.3351C34.1467 42.3025 34.7911 35.6762 52.4123 35.1668C55.6038 35.0734 59.6085 34.4612 60.3141 33.0267C60.6318 34.1902 64.8607 35.036 67.2952 45.9517C68.0725 49.4492 68.9074 60.407 61.8374 64.0682V64.0635Z" fill="url(#paint3_linear_3663_14081)"/>
<path d="M68.984 45.966C68.984 44.7731 65.6744 45.1498 60.1899 44.9345C56.4095 44.7866 53.4453 45.3471 52.1762 46.5624H48.2433C46.9787 45.3471 44.01 44.7821 40.2296 44.9345C34.7451 45.1498 31.4356 44.7731 31.4356 45.966C31.4356 46.1588 31.3593 46.4189 31.5432 46.7238C31.9109 47.3382 32.5746 46.7238 32.6823 49.5804C32.6823 49.5804 33.0231 51.6702 33.1172 52.3698C33.6061 56.0067 36.077 56.8991 38.1129 57.1457C40.3372 57.4193 41.5884 57.1457 43.1624 56.7645C45.1535 56.2847 46.7814 54.4281 47.6693 52.585C48.1985 51.4863 48.6021 49.7508 48.777 48.9481H51.6515C51.8219 49.7508 52.23 51.4863 52.7592 52.585C53.6471 54.4281 55.275 56.2847 57.2661 56.7645C58.8401 57.1457 60.0868 57.4148 62.3156 57.1457C64.347 56.8991 66.8225 56.0067 67.3113 52.3698C67.4055 51.6702 67.7463 49.5804 67.7463 49.5804C67.8539 46.7238 68.5176 47.3427 68.8853 46.7238C69.0692 46.4189 68.993 46.1543 68.993 45.966H68.984ZM47.6693 49.1724C47.6693 49.1724 47.5617 51.02 46.8531 52.4819C45.9652 54.325 44.9338 55.639 42.9427 56.1188C41.3686 56.5 40.1758 56.7152 37.947 56.4462C35.9155 56.1995 34.2025 55.1995 33.7137 51.5626C33.6195 50.863 33.4984 49.2845 33.4984 49.2845C33.3908 46.4279 36.6465 45.4861 39.9022 45.5399C45.3329 45.6296 48.2075 46.6252 47.6648 49.1768L47.6693 49.1724ZM66.9211 49.28C66.9211 49.28 66.8 50.8585 66.7059 51.5581C66.2171 55.195 64.504 56.195 62.4725 56.4417C60.2482 56.7152 59.0509 56.4955 57.4768 56.1143C55.4857 55.6345 54.4588 54.3205 53.5664 52.4774C52.8623 51.011 52.7502 49.1679 52.7502 49.1679C52.2076 46.6162 55.0821 45.6207 60.5128 45.531C63.7685 45.4772 67.0288 46.4234 66.9166 49.2755L66.9211 49.28Z" fill="#160E0E"/>
<path d="M54.3129 61.574C54.3587 61.6695 54.4083 61.7628 54.4497 61.8598C54.724 62.4956 54.6892 63.1181 54.3558 63.7237C54.1658 64.0684 53.9033 64.3528 53.5935 64.5954C53.0072 65.0547 52.3396 65.3399 51.618 65.5074C50.2709 65.8205 48.946 65.7514 47.6514 65.2561C47.0606 65.0297 46.529 64.7063 46.0973 64.2374C45.6647 63.7678 45.4178 63.2276 45.4548 62.5757C45.4688 62.3258 45.5257 62.0884 45.627 61.8606C45.6699 61.7643 45.7187 61.6702 45.7653 61.5754C46.1535 61.5916 46.5424 61.596 46.929 61.6254C47.6351 61.6798 48.3419 61.6857 49.0487 61.6908C50.0032 61.6974 50.9577 61.696 51.9122 61.6739C52.6775 61.6563 53.442 61.6026 54.2072 61.5651C54.2419 61.5637 54.2774 61.571 54.3122 61.574H54.3129Z" fill="url(#paint4_radial_3663_14081)"/>
<path d="M53.178 60.2574C53.9014 61.7773 52.5443 62.9422 51.1277 63.2738C49.4509 63.6667 45.3913 62.8926 46.6751 60.2585C49.7928 54.2879 50.4082 55.7114 53.178 60.2574Z" fill="#FEE3E3"/>
<path d="M57.4094 67.9184C57.4097 68.0761 57.3416 68.1781 57.2921 68.2944C56.6616 69.7597 55.8265 70.8195 54.8524 71.5985C54.0356 72.252 53.1709 72.6537 52.2815 72.9181C51.6649 73.1001 51.0421 73.1744 50.4186 73.2448C49.9171 73.3008 49.4199 73.212 48.9235 73.1348C47.9642 72.9831 47.0249 72.6739 46.1206 72.1252C45.332 71.6481 44.6012 71.0034 43.9552 70.1146C43.5434 69.5482 43.1814 68.9041 42.882 68.1695C42.8207 68.0177 42.7729 67.8506 42.7195 67.6912C42.8379 67.7486 42.9578 67.8009 43.0753 67.8647C43.3943 68.0366 43.7133 68.206 44.0422 68.3241C45.0552 68.6878 46.0874 68.8157 47.119 68.9218C47.8898 69.0014 48.6632 69.0438 49.436 69.0682C51.1449 69.121 52.8526 69.0443 54.5578 68.7894C55.443 68.6571 56.317 68.4414 57.1606 67.9522C57.2383 67.9067 57.3219 67.8228 57.4094 67.9197L57.4094 67.9184Z" fill="url(#paint5_radial_3663_14081)"/>
<path d="M55.2094 68.4787C55.2099 68.548 55.1612 68.5927 55.1259 68.6437C54.6756 69.2864 54.0771 69.7503 53.3779 70.0905C52.7916 70.3758 52.1702 70.5504 51.5308 70.6645C51.0875 70.7431 50.6395 70.7743 50.1909 70.8038C49.8301 70.8272 49.4722 70.787 49.1147 70.7519C48.424 70.683 47.7473 70.5448 47.0952 70.3015C46.5266 70.0899 45.9991 69.8048 45.5321 69.4125C45.2344 69.1626 44.9724 68.8785 44.7552 68.5549C44.7108 68.488 44.6759 68.4145 44.6371 68.3442C44.7224 68.3698 44.8089 68.393 44.8936 68.4214C45.1236 68.4977 45.3535 68.5729 45.5905 68.6256C46.3204 68.7879 47.0635 68.8465 47.8062 68.8956C48.361 68.9324 48.9178 68.9528 49.474 68.9654C50.7039 68.9926 51.9327 68.963 53.1593 68.8549C53.796 68.7988 54.4245 68.706 55.0304 68.493C55.0863 68.4732 55.1462 68.4365 55.2094 68.4793L55.2094 68.4787Z" fill="#FFE8E8"/>
<path d="M55.2095 68.4788C55.1463 68.436 55.0863 68.4727 55.0305 68.4925C54.4246 68.7061 53.796 68.7989 53.1594 68.8544C51.9328 68.9625 50.704 68.9922 49.474 68.9649C48.9178 68.9524 48.3611 68.9319 47.8062 68.8951C47.063 68.8455 46.3204 68.7874 45.5906 68.6251C45.3536 68.5724 45.1236 68.4967 44.8936 68.4209C44.8089 68.3931 44.7225 68.3693 44.6372 68.3438C44.2415 68.1719 43.8453 68.0018 43.4736 67.7811C43.3835 67.7279 43.2877 67.682 43.2096 67.6013C43.2832 67.545 43.3437 67.5771 43.4004 67.5877C44.2407 67.7407 45.0851 67.8572 45.9399 67.8807C46.3268 67.8913 46.7112 67.8737 47.0968 67.8437C47.7508 67.7928 48.4058 67.7667 49.062 67.788C49.6458 67.807 50.2291 67.8108 50.813 67.8039C51.5229 67.7952 52.2308 67.8361 52.9378 67.9079C53.565 67.9718 54.1934 67.9619 54.8211 67.908C55.4026 67.8582 55.982 67.7892 56.5577 67.6887C56.5977 67.6817 56.6428 67.664 56.6796 67.7032C56.6667 67.7657 56.6103 67.7804 56.5663 67.8065C56.2254 68.0088 55.8696 68.1794 55.5021 68.328C55.4191 68.3617 55.3367 68.397 55.2537 68.4318C55.2306 68.4424 55.1901 68.4375 55.2089 68.4839L55.2089 68.4794L55.2095 68.4788Z" fill="url(#paint6_radial_3663_14081)"/>
</g>
<defs>
<radialGradient id="paint0_radial_3663_14081" cx="0" cy="0" r="1" gradientUnits="userSpaceOnUse" gradientTransform="translate(50 54) rotate(77.4191) scale(119.366)">
<stop offset="0.330862" stop-color="#FFE2E8"/>
<stop offset="1" stop-color="#690038"/>
</radialGradient>
<radialGradient id="paint1_radial_3663_14081" cx="0" cy="0" r="1" gradientUnits="userSpaceOnUse" gradientTransform="translate(50 50) rotate(90) scale(70.5)">
<stop stop-color="white"/>
<stop offset="0.273875" stop-color="white" stop-opacity="0.7"/>
<stop offset="1" stop-color="#8A095F" stop-opacity="0.8"/>
</radialGradient>
<radialGradient id="paint2_radial_3663_14081" cx="0" cy="0" r="1" gradientUnits="userSpaceOnUse" gradientTransform="translate(50.2142 67.3315) rotate(-90) scale(14.057 13.479)">
<stop stop-color="#FFF2F2"/>
<stop offset="1" stop-color="#F2CCCC"/>
</radialGradient>
<linearGradient id="paint3_linear_3663_14081" x1="49.5979" y1="19.7166" x2="49.5979" y2="83.6604" gradientUnits="userSpaceOnUse">
<stop stop-color="#63201C"/>
<stop offset="1" stop-color="#AA5B3F"/>
</linearGradient>
<radialGradient id="paint4_radial_3663_14081" cx="0" cy="0" r="1" gradientUnits="userSpaceOnUse" gradientTransform="translate(50.0422 62.2536) rotate(90) scale(2.75462 2.92237)">
<stop stop-color="#EF837C"/>
<stop offset="1" stop-color="#FFBB9D" stop-opacity="0"/>
</radialGradient>
<radialGradient id="paint5_radial_3663_14081" cx="0" cy="0" r="1" gradientUnits="userSpaceOnUse" gradientTransform="translate(50.0572 68.671) rotate(90.4814) scale(3.67283 4.67579)">
<stop stop-color="#F45773"/>
<stop offset="1" stop-color="#FFBB9D" stop-opacity="0"/>
</radialGradient>
<radialGradient id="paint6_radial_3663_14081" cx="0" cy="0" r="1" gradientUnits="userSpaceOnUse" gradientTransform="translate(49.943 67.8475) rotate(92.7651) scale(3.30269 15.732)">
<stop stop-color="#F69C9C"/>
<stop offset="1" stop-color="#FFBB9D" stop-opacity="0"/>
</radialGradient>
<clipPath id="clip0_3663_14081">
<rect width="100" height="100" rx="50" fill="white"/>
</clipPath>
</defs>
</svg>
