<svg width="100" height="100" viewBox="0 0 100 100" fill="none" xmlns="http://www.w3.org/2000/svg">
<g clip-path="url(#clip0_3663_14064)">
<rect width="100" height="100" rx="50" fill="white"/>
<rect width="100" height="100" rx="50" fill="url(#paint0_radial_3663_14064)"/>
<circle cx="50" cy="50" r="52" fill="url(#paint1_radial_3663_14064)"/>
<path d="M68.2342 50.7527C67.2365 57.0507 66.8212 64.1131 64.3015 70.0175C62.9283 73.2026 59.9868 75.6296 57.6401 78.0906C56.6432 79.1361 55.4149 79.9999 53.607 79.9999C51.7992 79.9999 48.7803 79.9331 47.1757 79.9331C45.5711 79.9331 44.6573 79.0787 43.7063 78.0906C41.3444 75.636 38.3015 73.2372 36.963 70.0175C34.3654 63.8182 33.6148 56.5312 32.1943 49.9883C40.6052 51.264 48.7582 52.0284 68.2342 50.7527Z" fill="url(#paint2_radial_3663_14064)"/>
<path d="M54.3129 61.574C54.3587 61.6695 54.4083 61.7628 54.4497 61.8598C54.724 62.4956 54.6892 63.1181 54.3558 63.7237C54.1658 64.0684 53.9033 64.3528 53.5935 64.5954C53.0072 65.0547 52.3396 65.3399 51.618 65.5074C50.2709 65.8205 48.946 65.7514 47.6514 65.2561C47.0606 65.0297 46.529 64.7063 46.0973 64.2374C45.6647 63.7678 45.4178 63.2276 45.4548 62.5757C45.4688 62.3258 45.5257 62.0884 45.627 61.8606C45.6699 61.7643 45.7187 61.6702 45.7653 61.5754C46.1535 61.5916 46.5424 61.596 46.929 61.6254C47.6351 61.6798 48.3419 61.6857 49.0487 61.6908C50.0032 61.6974 50.9577 61.696 51.9122 61.6739C52.6775 61.6563 53.442 61.6026 54.2072 61.5651C54.2419 61.5637 54.2774 61.571 54.3122 61.574H54.3129Z" fill="url(#paint3_radial_3663_14064)"/>
<path d="M53.178 60.2574C53.9014 61.7773 52.5443 62.9422 51.1277 63.2738C49.4509 63.6667 45.3913 62.8926 46.6751 60.2585C49.7928 54.2879 50.4082 55.7114 53.178 60.2574Z" fill="#FEE3E3"/>
<path d="M57.4094 67.9184C57.4097 68.0761 57.3416 68.1781 57.2921 68.2944C56.6616 69.7597 55.8265 70.8195 54.8524 71.5985C54.0356 72.252 53.1709 72.6537 52.2815 72.9181C51.6649 73.1001 51.0421 73.1744 50.4186 73.2448C49.9171 73.3008 49.4199 73.212 48.9235 73.1348C47.9642 72.9831 47.0249 72.6739 46.1206 72.1252C45.332 71.6481 44.6012 71.0034 43.9552 70.1146C43.5434 69.5482 43.1814 68.9041 42.882 68.1695C42.8207 68.0177 42.7729 67.8506 42.7195 67.6912C42.8379 67.7486 42.9578 67.8009 43.0753 67.8647C43.3943 68.0366 43.7133 68.206 44.0422 68.3241C45.0552 68.6878 46.0874 68.8157 47.119 68.9218C47.8898 69.0014 48.6632 69.0438 49.436 69.0682C51.1449 69.121 52.8526 69.0443 54.5578 68.7894C55.443 68.6571 56.317 68.4414 57.1606 67.9522C57.2383 67.9067 57.3219 67.8228 57.4094 67.9197L57.4094 67.9184Z" fill="url(#paint4_radial_3663_14064)"/>
<path d="M55.2094 68.4787C55.2099 68.548 55.1612 68.5927 55.1259 68.6437C54.6756 69.2864 54.0771 69.7503 53.3779 70.0905C52.7916 70.3758 52.1702 70.5504 51.5308 70.6645C51.0875 70.7431 50.6395 70.7743 50.1909 70.8038C49.8301 70.8272 49.4722 70.787 49.1147 70.7519C48.424 70.683 47.7473 70.5448 47.0952 70.3015C46.5266 70.0899 45.9991 69.8048 45.5321 69.4125C45.2344 69.1626 44.9724 68.8785 44.7552 68.5549C44.7108 68.488 44.6759 68.4145 44.6371 68.3442C44.7224 68.3698 44.8089 68.393 44.8936 68.4214C45.1236 68.4977 45.3535 68.5729 45.5905 68.6256C46.3204 68.7879 47.0635 68.8465 47.8062 68.8956C48.361 68.9324 48.9178 68.9528 49.474 68.9654C50.7039 68.9926 51.9327 68.963 53.1593 68.8549C53.796 68.7988 54.4245 68.706 55.0304 68.493C55.0863 68.4732 55.1462 68.4365 55.2094 68.4793L55.2094 68.4787Z" fill="#FFE8E8"/>
<path d="M55.2095 68.4788C55.1463 68.436 55.0863 68.4727 55.0305 68.4925C54.4246 68.7061 53.796 68.7989 53.1594 68.8544C51.9328 68.9625 50.704 68.9922 49.474 68.9649C48.9178 68.9524 48.3611 68.9319 47.8062 68.8951C47.063 68.8455 46.3204 68.7874 45.5906 68.6251C45.3536 68.5724 45.1236 68.4967 44.8936 68.4209C44.8089 68.3931 44.7225 68.3693 44.6372 68.3438C44.2415 68.1719 43.8453 68.0018 43.4736 67.7811C43.3835 67.7279 43.2877 67.682 43.2096 67.6013C43.2832 67.545 43.3437 67.5771 43.4004 67.5877C44.2407 67.7407 45.0851 67.8572 45.9399 67.8807C46.3268 67.8913 46.7112 67.8737 47.0968 67.8437C47.7508 67.7928 48.4058 67.7667 49.062 67.788C49.6458 67.807 50.2291 67.8108 50.813 67.8039C51.5229 67.7952 52.2308 67.8361 52.9378 67.9079C53.565 67.9718 54.1934 67.9619 54.8211 67.908C55.4026 67.8582 55.982 67.7892 56.5577 67.6887C56.5977 67.6817 56.6428 67.664 56.6796 67.7032C56.6667 67.7657 56.6103 67.7804 56.5663 67.8065C56.2254 68.0088 55.8696 68.1794 55.5021 68.328C55.4191 68.3617 55.3367 68.397 55.2537 68.4318C55.2306 68.4424 55.1901 68.4375 55.2089 68.4839L55.2089 68.4794L55.2095 68.4788Z" fill="url(#paint5_radial_3663_14064)"/>
<path fill-rule="evenodd" clip-rule="evenodd" d="M66.1747 45.5112L68.4979 45.9603C70.2079 46.2885 70.9334 48.3353 69.8279 49.6739C69.8279 49.6739 68.8347 54.2339 68.5065 57.5502C68.4029 58.5521 67.5738 59.3293 66.5634 59.3293C66.5634 59.3293 67.8415 48.9744 66.1747 45.5199V45.5112Z" fill="#BE7209"/>
<path fill-rule="evenodd" clip-rule="evenodd" d="M34.106 45.0778L31.8175 45.679C30.1329 46.1192 29.5439 48.2094 30.7352 49.4722C30.7352 49.4722 32.0268 53.9568 32.5728 57.2443C32.7423 58.2371 33.6208 58.958 34.629 58.8914C34.629 58.8914 32.6711 48.6433 34.1066 45.0864L34.106 45.0778Z" fill="#BE7209"/>
<path fill-rule="evenodd" clip-rule="evenodd" d="M61.3385 24.6378C61.3385 24.6378 57.8926 21.166 50.4222 21.166C42.9518 21.166 39.5059 24.6378 39.5059 24.6378C25.8346 29.9751 26.4651 46.2545 26.9314 50.8836H73.9043C74.3707 46.2545 75.0011 29.9751 61.3385 24.6378Z" fill="url(#paint6_radial_3663_14064)"/>
<path fill-rule="evenodd" clip-rule="evenodd" d="M57.9703 43.1107C59.6457 40.7703 62.2712 31.2617 63.6876 25.7345C62.9621 25.3372 62.1762 24.9659 61.3471 24.6377C61.3471 24.6377 60.9844 24.2922 60.2762 23.8086C60.2589 30.994 57.9703 43.1107 57.9703 43.1107Z" fill="url(#paint7_linear_3663_14064)"/>
<path fill-rule="evenodd" clip-rule="evenodd" d="M40.5682 23.8086C39.86 24.2922 39.5059 24.6377 39.5059 24.6377C38.6595 24.9572 37.8823 25.3372 37.1482 25.7345C38.5645 31.2531 41.19 40.7703 42.8654 43.1107C42.8654 43.1107 40.5768 30.994 40.5595 23.8086H40.5682Z" fill="url(#paint8_linear_3663_14064)"/>
<path d="M53.2717 20C54.2821 20 55.1115 20.8294 55.1115 21.8398V46.1826C66.3265 46.5763 76.2326 48.3823 75.4416 51.5996C72.678 52.8087 51.5708 52.7051 50.3703 52.7051C49.1698 52.7137 28.054 52.8087 25.299 51.5996C24.5056 48.3724 34.4752 46.5658 45.7326 46.1797V21.8398C45.7326 20.8294 46.562 20 47.5725 20H53.2717Z" fill="url(#paint9_linear_3663_14064)"/>
</g>
<defs>
<radialGradient id="paint0_radial_3663_14064" cx="0" cy="0" r="1" gradientUnits="userSpaceOnUse" gradientTransform="translate(50 54) rotate(77.4191) scale(119.366)">
<stop offset="0.330862" stop-color="#FFF3E2"/>
<stop offset="1" stop-color="#FF9200"/>
</radialGradient>
<radialGradient id="paint1_radial_3663_14064" cx="0" cy="0" r="1" gradientUnits="userSpaceOnUse" gradientTransform="translate(50 50) rotate(90) scale(70.5)">
<stop stop-color="white"/>
<stop offset="0.273875" stop-color="white" stop-opacity="0.7"/>
<stop offset="1" stop-color="#FF9300" stop-opacity="0.8"/>
</radialGradient>
<radialGradient id="paint2_radial_3663_14064" cx="0" cy="0" r="1" gradientUnits="userSpaceOnUse" gradientTransform="translate(50.2142 67.3315) rotate(-90) scale(15.7003 15.7577)">
<stop stop-color="#FFF2F2"/>
<stop offset="1" stop-color="#F2CCCC"/>
</radialGradient>
<radialGradient id="paint3_radial_3663_14064" cx="0" cy="0" r="1" gradientUnits="userSpaceOnUse" gradientTransform="translate(50.0422 62.2536) rotate(90) scale(2.75462 2.92237)">
<stop stop-color="#EF837C"/>
<stop offset="1" stop-color="#FFBB9D" stop-opacity="0"/>
</radialGradient>
<radialGradient id="paint4_radial_3663_14064" cx="0" cy="0" r="1" gradientUnits="userSpaceOnUse" gradientTransform="translate(50.0572 68.671) rotate(90.4814) scale(3.67283 4.67579)">
<stop stop-color="#F45773"/>
<stop offset="1" stop-color="#FFBB9D" stop-opacity="0"/>
</radialGradient>
<radialGradient id="paint5_radial_3663_14064" cx="0" cy="0" r="1" gradientUnits="userSpaceOnUse" gradientTransform="translate(49.943 67.8475) rotate(92.7651) scale(3.30269 15.732)">
<stop stop-color="#F69C9C"/>
<stop offset="1" stop-color="#FFBB9D" stop-opacity="0"/>
</radialGradient>
<radialGradient id="paint6_radial_3663_14064" cx="0" cy="0" r="1" gradientUnits="userSpaceOnUse" gradientTransform="translate(50.4179 28.3385) rotate(90) scale(22.545 39.2266)">
<stop stop-color="#FDC272"/>
<stop offset="1" stop-color="#DC840D"/>
</radialGradient>
<linearGradient id="paint7_linear_3663_14064" x1="60.8289" y1="23.8086" x2="60.8289" y2="43.1107" gradientUnits="userSpaceOnUse">
<stop stop-color="#F69638"/>
<stop offset="1" stop-color="#B27131"/>
</linearGradient>
<linearGradient id="paint8_linear_3663_14064" x1="40.0068" y1="23.8086" x2="40.0068" y2="43.1107" gradientUnits="userSpaceOnUse">
<stop stop-color="#F69638"/>
<stop offset="1" stop-color="#B27131"/>
</linearGradient>
<linearGradient id="paint9_linear_3663_14064" x1="50.3703" y1="20" x2="50.3703" y2="52.7102" gradientUnits="userSpaceOnUse">
<stop stop-color="#FFB032"/>
<stop offset="1" stop-color="#FDAD2D"/>
</linearGradient>
<clipPath id="clip0_3663_14064">
<rect width="100" height="100" rx="50" fill="white"/>
</clipPath>
</defs>
</svg>
