<svg width="100" height="100" viewBox="0 0 100 100" fill="none" xmlns="http://www.w3.org/2000/svg">
<g clip-path="url(#clip0_3663_14053)">
<rect width="100" height="100" rx="50" fill="white"/>
<rect width="100" height="100" rx="50" fill="url(#paint0_radial_3663_14053)"/>
<g opacity="0.2" style="mix-blend-mode:multiply">
<circle cx="49.6071" cy="50" r="52" fill="url(#paint1_radial_3663_14053)"/>
</g>
<path d="M43.7063 78.0906C44.6573 79.0787 45.5711 79.9331 47.1757 79.9331C48.7803 79.9331 51.7992 79.9999 53.607 79.9999C55.4149 79.9999 56.6432 79.1361 57.6401 78.0906C59.9868 75.6296 62.9283 73.2026 64.3015 70.0175C66.8212 64.1131 67.2365 57.0507 68.2342 50.7527C69.7475 31.3206 61.9602 27.951 47.1757 28.5502C32.3911 29.1494 31.4951 43.7009 32.1943 49.9883C32.8934 56.2757 34.3654 63.8182 36.963 70.0175C38.3015 73.2372 41.3444 75.636 43.7063 78.0906Z" fill="url(#paint2_radial_3663_14053)"/>
<path d="M36.2203 24.6366C39.81 23.6922 58.483 13.1653 60.4137 24.2108C61.3915 23.4991 63.1306 23.3854 66.2174 25.4422C66.1849 25.447 63.4039 25.8545 64.0065 26.8543C64.0165 26.8556 73.8701 28.0641 73.6637 36.1122C73.5309 41.4613 72.5968 45.1198 71.986 46.9735C72.0247 47.6892 72.0455 48.4269 72.0455 49.1864C72.0455 49.1864 71.0893 48.5813 69.7604 48.2811C69.7541 48.3705 69.3327 54.3289 69.1344 55.327L67.5231 55.5262C67.5271 55.4726 68.4241 43.4503 66.3112 42.5457C64.1999 41.64 66.0109 34.0937 61.1823 34.3934C61.1823 34.3934 61.175 34.3947 61.1647 34.3983L61.1696 34.4002C61.1696 34.4002 55.1281 39.7348 48.4879 39.1288C48.4226 39.1038 40.6246 36.1323 37.819 40.9403C37.819 40.9403 35.6249 45.8651 33.3336 46.6805C33.0338 50.4792 33.4073 55.4932 33.4098 55.5262L31.7975 55.327C31.5991 54.3287 31.1777 48.3681 31.1715 48.2811C29.8364 48.5813 28.8873 49.1864 28.8873 49.1864C28.8873 45.3898 29.3863 42.1472 30.233 39.3788C30.2996 37.4676 30.2619 35.7881 29.986 35.0995C29.1802 33.088 29.9863 28.053 33.609 28.0526C33.5633 28.0525 29.9834 28.0321 29.5797 24.8358C29.5797 24.8358 32.3974 25.6423 36.2203 24.6366Z" fill="url(#paint3_linear_3663_14053)"/>
<path d="M54.3129 61.574C54.3587 61.6695 54.4083 61.7628 54.4497 61.8598C54.724 62.4956 54.6892 63.1181 54.3558 63.7237C54.1658 64.0684 53.9033 64.3528 53.5935 64.5954C53.0072 65.0547 52.3396 65.3399 51.618 65.5074C50.2709 65.8205 48.946 65.7514 47.6514 65.2561C47.0606 65.0297 46.529 64.7063 46.0973 64.2374C45.6647 63.7678 45.4178 63.2276 45.4548 62.5757C45.4688 62.3258 45.5257 62.0884 45.627 61.8606C45.6699 61.7643 45.7187 61.6702 45.7653 61.5754C46.1535 61.5916 46.5424 61.596 46.929 61.6254C47.6351 61.6798 48.3419 61.6857 49.0487 61.6908C50.0032 61.6974 50.9577 61.696 51.9122 61.6739C52.6775 61.6563 53.442 61.6026 54.2072 61.5651C54.2419 61.5637 54.2774 61.571 54.3122 61.574H54.3129Z" fill="url(#paint4_radial_3663_14053)"/>
<path d="M53.178 60.2574C53.9014 61.7773 52.5443 62.9422 51.1277 63.2738C49.4509 63.6667 45.3913 62.8926 46.6751 60.2585C49.7928 54.2879 50.4082 55.7114 53.178 60.2574Z" fill="#FEE3E3"/>
<path d="M57.4094 67.9184C57.4097 68.0761 57.3416 68.1781 57.2921 68.2944C56.6616 69.7597 55.8265 70.8195 54.8524 71.5985C54.0356 72.252 53.1709 72.6537 52.2815 72.9181C51.6649 73.1001 51.0421 73.1744 50.4186 73.2448C49.9171 73.3008 49.4199 73.212 48.9235 73.1348C47.9642 72.9831 47.0249 72.6739 46.1206 72.1252C45.332 71.6481 44.6012 71.0034 43.9552 70.1146C43.5434 69.5482 43.1814 68.9041 42.882 68.1695C42.8207 68.0177 42.7729 67.8506 42.7195 67.6912C42.8379 67.7486 42.9578 67.8009 43.0753 67.8647C43.3943 68.0366 43.7133 68.206 44.0422 68.3241C45.0552 68.6878 46.0874 68.8157 47.119 68.9218C47.8898 69.0014 48.6632 69.0438 49.436 69.0682C51.1449 69.121 52.8526 69.0443 54.5578 68.7894C55.443 68.6571 56.317 68.4414 57.1606 67.9522C57.2383 67.9067 57.3219 67.8228 57.4094 67.9197L57.4094 67.9184Z" fill="url(#paint5_radial_3663_14053)"/>
<path d="M55.2094 68.4787C55.2099 68.548 55.1612 68.5927 55.1259 68.6437C54.6756 69.2864 54.0771 69.7503 53.3779 70.0905C52.7916 70.3758 52.1702 70.5504 51.5308 70.6645C51.0875 70.7431 50.6395 70.7743 50.1909 70.8038C49.8301 70.8272 49.4722 70.787 49.1147 70.7519C48.424 70.683 47.7473 70.5448 47.0952 70.3015C46.5266 70.0899 45.9991 69.8048 45.5321 69.4125C45.2344 69.1626 44.9724 68.8785 44.7552 68.5549C44.7108 68.488 44.6759 68.4145 44.6371 68.3442C44.7224 68.3698 44.8089 68.393 44.8936 68.4214C45.1236 68.4977 45.3535 68.5729 45.5905 68.6256C46.3204 68.7879 47.0635 68.8465 47.8062 68.8956C48.361 68.9324 48.9178 68.9528 49.474 68.9654C50.7039 68.9926 51.9327 68.963 53.1593 68.8549C53.796 68.7988 54.4245 68.706 55.0304 68.493C55.0863 68.4732 55.1462 68.4365 55.2094 68.4793L55.2094 68.4787Z" fill="#FFE8E8"/>
<path d="M55.2095 68.4788C55.1463 68.436 55.0863 68.4727 55.0305 68.4925C54.4246 68.7061 53.796 68.7989 53.1594 68.8544C51.9328 68.9625 50.704 68.9922 49.474 68.9649C48.9178 68.9524 48.3611 68.9319 47.8062 68.8951C47.063 68.8455 46.3204 68.7874 45.5906 68.6251C45.3536 68.5724 45.1236 68.4967 44.8936 68.4209C44.8089 68.3931 44.7225 68.3693 44.6372 68.3438C44.2415 68.1719 43.8453 68.0018 43.4736 67.7811C43.3835 67.7279 43.2877 67.682 43.2096 67.6013C43.2832 67.545 43.3437 67.5771 43.4004 67.5877C44.2407 67.7407 45.0851 67.8572 45.9399 67.8807C46.3268 67.8913 46.7112 67.8737 47.0968 67.8437C47.7508 67.7928 48.4058 67.7667 49.062 67.788C49.6458 67.807 50.2291 67.8108 50.813 67.8039C51.5229 67.7952 52.2308 67.8361 52.9378 67.9079C53.565 67.9718 54.1934 67.9619 54.8211 67.908C55.4026 67.8582 55.982 67.7892 56.5577 67.6887C56.5977 67.6817 56.6428 67.664 56.6796 67.7032C56.6667 67.7657 56.6103 67.7804 56.5663 67.8065C56.2254 68.0088 55.8696 68.1794 55.5021 68.328C55.4191 68.3617 55.3367 68.397 55.2537 68.4318C55.2306 68.4424 55.1901 68.4375 55.2089 68.4839L55.2089 68.4794L55.2095 68.4788Z" fill="url(#paint6_radial_3663_14053)"/>
</g>
<defs>
<radialGradient id="paint0_radial_3663_14053" cx="0" cy="0" r="1" gradientUnits="userSpaceOnUse" gradientTransform="translate(50 50) rotate(90) scale(50)">
<stop stop-color="#C8C4EC"/>
<stop offset="1" stop-color="#8377EF"/>
</radialGradient>
<radialGradient id="paint1_radial_3663_14053" cx="0" cy="0" r="1" gradientUnits="userSpaceOnUse" gradientTransform="translate(49.6071 50) rotate(90) scale(70.5)">
<stop stop-color="white"/>
<stop offset="0.273875" stop-color="white" stop-opacity="0.7"/>
<stop offset="1" stop-color="#001A51" stop-opacity="0.8"/>
</radialGradient>
<radialGradient id="paint2_radial_3663_14053" cx="0" cy="0" r="1" gradientUnits="userSpaceOnUse" gradientTransform="translate(50.2241 64.3238) rotate(-90) scale(27.1564 15.6938)">
<stop stop-color="#FFF2F2"/>
<stop offset="1" stop-color="#F2CCCC"/>
</radialGradient>
<linearGradient id="paint3_linear_3663_14053" x1="51.2771" y1="28.3852" x2="51.2771" y2="56.6789" gradientUnits="userSpaceOnUse">
<stop stop-color="#181818"/>
<stop offset="1" stop-color="#7E7E7E"/>
</linearGradient>
<radialGradient id="paint4_radial_3663_14053" cx="0" cy="0" r="1" gradientUnits="userSpaceOnUse" gradientTransform="translate(50.0422 62.2536) rotate(90) scale(2.75462 2.92237)">
<stop stop-color="#EF837C"/>
<stop offset="1" stop-color="#FFBB9D" stop-opacity="0"/>
</radialGradient>
<radialGradient id="paint5_radial_3663_14053" cx="0" cy="0" r="1" gradientUnits="userSpaceOnUse" gradientTransform="translate(50.0572 68.671) rotate(90.4814) scale(3.67283 4.67579)">
<stop stop-color="#F45773"/>
<stop offset="1" stop-color="#FFBB9D" stop-opacity="0"/>
</radialGradient>
<radialGradient id="paint6_radial_3663_14053" cx="0" cy="0" r="1" gradientUnits="userSpaceOnUse" gradientTransform="translate(49.943 67.8475) rotate(92.7651) scale(3.30269 15.732)">
<stop stop-color="#F69C9C"/>
<stop offset="1" stop-color="#FFBB9D" stop-opacity="0"/>
</radialGradient>
<clipPath id="clip0_3663_14053">
<rect width="100" height="100" rx="50" fill="white"/>
</clipPath>
</defs>
</svg>
