<svg width="100" height="100" viewBox="0 0 100 100" fill="none" xmlns="http://www.w3.org/2000/svg">
<g clip-path="url(#clip0_3663_14032)">
<rect width="100" height="100" rx="50" fill="white"/>
<rect width="100" height="100" rx="50" fill="url(#paint0_radial_3663_14032)"/>
<circle cx="50" cy="50" r="52" fill="url(#paint1_radial_3663_14032)"/>
<path d="M50.0281 20H50.6502C50.9383 20.0569 51.2296 20.0542 51.521 20.0482C51.6842 20.0628 51.8475 20.0812 52.0112 20.0921C52.8225 20.1462 53.6252 20.267 54.4209 20.43C56.4148 20.8389 58.3061 21.5311 60.0882 22.5184C62.5497 23.8827 64.6361 25.6845 66.3317 27.9365C68.0278 30.1895 69.1726 32.6976 69.764 35.4586C69.9602 36.3745 70.0899 37.3006 70.1385 38.2354C70.1888 39.1961 70.1899 40.1575 70.0958 41.1166C69.7921 41.1318 69.4953 41.0641 69.1943 41.043C68.937 41.0251 68.6813 40.985 68.424 40.9585C68.1927 40.9347 67.9565 40.9363 67.73 40.8886C67.5246 40.8453 67.3381 40.8724 67.1457 40.9282C66.142 41.2174 65.1317 41.4789 64.1112 41.7026C63.2518 41.8906 62.3902 42.065 61.5227 42.2123C60.5963 42.3693 59.6682 42.5123 58.7358 42.6293C58.5563 42.652 58.3753 42.6634 58.1964 42.6894C57.9661 42.7224 57.7348 42.7484 57.5034 42.7723C57.2721 42.7961 57.0391 42.808 56.8083 42.8346C56.4316 42.8784 56.0554 42.9261 55.6754 42.9326C55.6408 42.9331 55.6051 42.931 55.5722 42.938C55.2241 43.0144 54.8668 42.9721 54.5154 43.0214C54.2182 43.0631 53.9133 43.0506 53.6117 43.0723C53.1387 43.1064 52.6636 43.0956 52.1891 43.1254C51.7502 43.153 51.308 43.1373 50.8675 43.1378C50.2454 43.1378 49.6232 43.1416 49.0011 43.1319C48.3714 43.1221 47.7417 43.0972 47.112 43.0788C47.0774 43.0777 47.0423 43.0788 47.0088 43.0739C46.5731 43.0046 46.1304 43.0404 45.6926 42.9873C45.3591 42.9467 45.0196 42.9569 44.6867 42.9158C44.4716 42.8893 44.2564 42.8882 44.0419 42.8654C43.7932 42.8389 43.5457 42.8042 43.2976 42.7777C42.9116 42.7365 42.5246 42.7073 42.1398 42.6591C41.6955 42.6033 41.2533 42.5248 40.809 42.4706C40.0982 42.3834 39.3929 42.2615 38.6891 42.1337C37.6627 41.9463 36.6406 41.734 35.626 41.486C34.9217 41.3138 34.2217 41.1242 33.5256 40.9217C33.3823 40.8799 33.2477 40.868 33.0959 40.8881C32.6861 40.9428 32.2726 40.9704 31.8613 41.0105C31.6554 41.0305 31.45 41.0543 31.2446 41.0765C31.0224 41.1004 30.8003 41.1247 30.5781 41.1491C30.5608 40.8377 30.5397 40.5268 30.5273 40.2154C30.4711 38.8084 30.5538 37.4105 30.8057 36.024C31.1473 34.1447 31.7516 32.3548 32.6348 30.6618C34.2272 27.6099 36.4746 25.1527 39.3469 23.2696C41.0144 22.1761 42.8106 21.3626 44.7245 20.8086C46.1742 20.3889 47.6547 20.15 49.1584 20.0487C49.4497 20.0542 49.7411 20.0574 50.0292 20.0005L50.0281 20Z" fill="url(#paint2_radial_3663_14032)" style="mix-blend-mode:multiply"/>
<path d="M75.1756 46.3082V48.128C75.1377 48.1691 75.1313 48.22 75.1307 48.2726C75.1291 48.4627 75.128 48.6533 75.1253 48.8434C75.1226 49.0422 75.1307 49.2426 75.1118 49.4397C75.0729 49.8432 75.021 50.245 74.9713 50.6474C74.9329 50.9556 74.8967 51.2643 74.8464 51.5703C74.7918 51.9023 74.7226 52.2321 74.6594 52.5625C74.5059 53.3608 74.3075 54.1477 74.0643 54.9228C73.8 55.7644 73.5 56.5919 73.1308 57.3946C72.9822 57.7179 72.9968 57.6876 72.6741 57.6881C71.8806 57.6897 71.0866 57.6908 70.2931 57.6865C70.1574 57.686 70.045 57.7206 69.932 57.7964C69.5585 58.045 69.1786 58.2839 68.8029 58.5281C68.7607 58.5558 68.7272 58.5969 68.6894 58.6316C68.6645 58.6375 68.6359 58.6375 68.6148 58.65C68.3343 58.8173 68.0548 58.9863 67.7754 59.1553C67.7359 59.1726 67.6954 59.1872 67.6581 59.2078C66.8235 59.6774 65.9673 60.1042 65.0933 60.4946C65.0544 60.512 65.0187 60.5369 64.9814 60.558C64.9166 60.5808 64.8501 60.5992 64.7874 60.6268C63.5426 61.1646 62.2664 61.6147 60.9632 61.9884C59.4103 62.433 57.832 62.7601 56.2337 62.987C55.5505 63.084 54.8651 63.1663 54.177 63.2183C53.9452 63.2356 53.7144 63.2638 53.483 63.2871C53.4576 63.2849 53.4317 63.2795 53.4063 63.2806C52.8468 63.3077 52.2879 63.3477 51.7285 63.3607C51.0312 63.377 50.3329 63.3781 49.6351 63.3732C49.1184 63.3699 48.6011 63.3656 48.0854 63.325C47.8027 63.3028 47.5184 63.2995 47.2346 63.2882C47.1752 63.2795 47.1163 63.2676 47.0563 63.2622C46.4552 63.2042 45.852 63.1593 45.2526 63.0878C44.2245 62.9654 43.2029 62.7975 42.1884 62.5874C40.0701 62.1481 38.0113 61.5182 36.0206 60.6685C35.926 60.6279 35.8276 60.5954 35.7308 60.5591C35.686 60.5347 35.6422 60.5066 35.5957 60.486C34.7093 60.0879 33.8401 59.6546 32.9942 59.1748C32.9423 59.1455 32.885 59.1255 32.8304 59.1011C32.5769 58.9132 32.2942 58.7718 32.0261 58.6067C31.9921 58.5861 31.9451 58.5866 31.9045 58.5774C31.8721 58.5135 31.818 58.4756 31.7586 58.4366C31.4408 58.2286 31.1094 58.0418 30.8078 57.81C30.6932 57.7222 30.5689 57.6897 30.4235 57.6903C29.5435 57.6946 28.663 57.6925 27.7825 57.6925C27.7133 57.6925 27.6447 57.6908 27.5755 57.6897C27.509 57.6887 27.4582 57.6578 27.4307 57.5982C27.3723 57.4731 27.3182 57.3458 27.2604 57.2202C27.0436 56.7485 26.8528 56.2664 26.6874 55.7747C26.5907 55.4882 26.4934 55.2017 26.401 54.9141C26.3702 54.8171 26.315 54.7738 26.2134 54.7754C26.0237 54.7787 25.834 54.7738 25.6437 54.7754C25.5259 54.7765 25.4534 54.7235 25.4048 54.6151C25.1129 53.9674 24.8719 53.3007 24.6811 52.6172C24.4908 51.9348 24.3384 51.2437 24.2476 50.5391C24.1811 50.0252 24.1103 49.5128 24.0968 48.994C24.0924 48.8239 24.0768 48.6506 24 48.4925V47.6086C24.0843 47.4515 24.0832 47.2733 24.0924 47.1065C24.113 46.7263 24.1535 46.3499 24.2011 45.973C24.2638 45.4752 24.3611 44.9846 24.4778 44.4977C24.5421 44.2301 24.5508 44.2285 24.8275 44.2269C24.9827 44.2258 25.1383 44.229 25.2935 44.2253C25.4189 44.222 25.4248 44.2096 25.4637 44.0779C25.4967 43.9685 25.4929 43.8554 25.5113 43.7449C25.6334 43.0034 25.7702 42.2647 25.9664 41.5384C26.0469 41.2406 26.0459 41.2682 26.3102 41.2676C27.1647 41.2671 28.0187 41.2665 28.8733 41.2682C28.9679 41.2682 29.0619 41.2806 29.1565 41.2877C29.1063 41.4799 29.1717 41.6652 29.1884 41.8536C29.1927 41.9008 29.2257 41.9295 29.2679 41.9479C29.3154 41.9684 29.363 41.9885 29.4106 42.0091C30.5894 42.5057 31.7953 42.9276 33.018 43.3018C34.4222 43.7319 35.8449 44.0888 37.2827 44.3877C38.7453 44.6921 40.2171 44.9358 41.6987 45.1281C42.5635 45.2402 43.43 45.3344 44.2975 45.4135C44.8904 45.4677 45.4861 45.492 46.0796 45.5413C46.4498 45.5722 46.8206 45.583 47.1919 45.5971C47.8908 45.6236 48.5892 45.6583 49.2881 45.6697C50.2551 45.6854 51.222 45.6773 52.189 45.648C52.8966 45.6269 53.6041 45.6004 54.3111 45.5646C54.897 45.5348 55.4819 45.4801 56.0667 45.4325C56.5396 45.394 57.0137 45.3588 57.485 45.3063C58.1282 45.2348 58.7693 45.1476 59.4114 45.0674C60.2422 44.964 61.0681 44.8275 61.8918 44.6791C63.1491 44.4533 64.3977 44.183 65.6355 43.8662C67.4446 43.4026 69.2207 42.8393 70.9531 42.1396C71.0974 42.0811 71.2395 42.0183 71.3833 41.9598C71.4547 41.9305 71.4909 41.8834 71.4984 41.8043C71.513 41.6408 71.5347 41.4778 71.5536 41.3142C72.4498 41.3142 73.3465 41.3131 74.2426 41.3126C74.2772 41.3126 74.3118 41.3137 74.3459 41.3175C74.3913 41.3223 74.427 41.3456 74.4448 41.3889C74.4583 41.4209 74.4713 41.4534 74.4794 41.4864C74.5561 41.7962 74.6399 42.1049 74.7053 42.4174C74.8426 43.076 74.9594 43.7378 75.0318 44.4072C75.0783 44.8362 75.1318 45.2635 75.1259 45.6962C75.1242 45.843 75.1275 45.9903 75.1291 46.1371C75.1296 46.1977 75.1291 46.2589 75.175 46.3071L75.1756 46.3082ZM50.3032 60.1442C51.6307 60.1534 52.8636 60.0955 54.096 59.9948C54.8365 59.9341 55.5754 59.8577 56.3115 59.7602C57.4845 59.6048 58.6498 59.4055 59.8087 59.1629C62.2821 58.6457 64.6987 57.9367 67.0549 57.0209C67.6429 56.7923 68.224 56.5481 68.8018 56.2957C68.9083 56.2491 68.9591 56.1874 68.9683 56.0655C68.9964 55.6945 69.038 55.3241 69.0753 54.9536C69.1369 54.3422 69.2007 53.7307 69.2607 53.1187C69.3207 52.5067 69.3758 51.8947 69.4364 51.2827C69.5142 50.4985 69.5964 49.7148 69.6737 48.9311C69.7342 48.3191 69.7882 47.7071 69.8488 47.0951C69.9255 46.3196 70.0088 45.5451 70.0839 44.7696C70.1153 44.4435 70.1201 44.4592 69.8142 44.5708C68.0597 45.212 66.2684 45.7287 64.449 46.1479C62.0221 46.7068 59.566 47.0897 57.0888 47.3345C56.2126 47.4212 55.3332 47.4873 54.4543 47.5409C53.6355 47.5907 52.8149 47.6232 51.995 47.6416C50.7772 47.6687 49.5594 47.6703 48.3411 47.6248C47.5557 47.5956 46.7703 47.5658 45.9861 47.5154C45.1499 47.4618 44.3153 47.3909 43.4818 47.308C42.6911 47.2295 41.9025 47.1347 41.116 47.0226C39.7825 46.8325 38.4556 46.6007 37.1383 46.3174C35.0503 45.8684 32.9964 45.3003 30.991 44.5616C30.9424 44.5437 30.8943 44.5248 30.8446 44.5085C30.7629 44.4825 30.7246 44.5058 30.7273 44.5849C30.7316 44.7062 30.7392 44.827 30.7511 44.9477C30.7948 45.387 30.8424 45.8257 30.8856 46.2654C30.9278 46.696 30.964 47.1276 31.0073 47.5582C31.0673 48.161 31.1332 48.7632 31.1927 49.3666C31.2537 49.9867 31.3078 50.6079 31.3689 51.228C31.4456 52.0036 31.5294 52.7781 31.6056 53.5531C31.6834 54.346 31.757 55.1389 31.8315 55.9317C31.8597 56.2275 31.8586 56.228 32.1299 56.3477C34.1428 57.2337 36.2141 57.9519 38.335 58.526C40.5733 59.1315 42.8435 59.5696 45.1466 59.8388C46.0136 59.9401 46.8822 60.0197 47.753 60.0717C48.6324 60.1242 49.5135 60.1589 50.3037 60.1442H50.3032Z" fill="url(#paint3_radial_3663_14032)" style="mix-blend-mode:multiply"/>
<path d="M53.4825 63.2877C53.7138 63.2644 53.9446 63.2362 54.1765 63.2189C54.8651 63.1669 55.55 63.0846 56.2332 62.9876C57.8315 62.7607 59.4098 62.4336 60.9627 61.9889C62.2659 61.6158 63.542 61.1652 64.7869 60.6274C64.8496 60.6003 64.916 60.5813 64.9809 60.5586C64.9701 60.6268 64.9631 60.6962 64.9479 60.7633C64.6669 62.0458 64.382 63.3272 64.1036 64.6102C63.7826 66.0872 63.4637 67.5646 63.1496 69.0432C63.0167 69.6692 62.8756 70.2921 62.6415 70.8894C62.6291 70.9208 62.6275 70.9566 62.621 70.9902C62.5605 71.0557 62.5432 71.1429 62.5097 71.2214C62.0702 72.2407 61.4719 73.1549 60.7076 73.9592C59.3314 75.4068 57.9547 76.854 56.5764 78.2995C55.9375 78.9694 55.1743 79.4433 54.2992 79.7379C54.0203 79.8316 53.7338 79.8928 53.4468 79.953C53.3717 79.9383 53.296 79.947 53.2274 79.9725C53.1468 80.0028 53.0657 79.9984 52.9841 80.0001H47.7471C47.5903 79.9232 47.4222 79.9383 47.2557 79.9405C46.0488 79.7412 45.0126 79.2045 44.1656 78.3244C42.7565 76.8599 41.3592 75.3836 39.9615 73.9077C39.1864 73.0888 38.5923 72.1503 38.1594 71.1088C38.1296 71.0378 38.0934 70.9696 38.0605 70.9003C38.034 70.8093 38.0107 70.7172 37.9799 70.6278C37.8837 70.35 37.7945 70.07 37.7313 69.7824C37.5956 69.1661 37.4621 68.5498 37.3286 67.9329C36.9556 66.2095 36.5832 64.4862 36.2103 62.7634C36.0514 62.0285 35.8903 61.2941 35.7308 60.5597C35.8276 60.596 35.9254 60.6285 36.0206 60.6691C38.0113 61.5188 40.0701 62.1487 42.1884 62.5879C43.2029 62.7986 44.2245 62.966 45.2526 63.0884C45.852 63.1599 46.4547 63.2048 47.0563 63.2628C47.1163 63.2687 47.1752 63.2801 47.2347 63.2888C47.2006 63.3586 47.1649 63.4279 47.1336 63.4989C47.0595 63.6668 47.0179 63.8412 47.0076 64.0259C46.9806 64.5062 47.1611 64.9043 47.4773 65.2504C47.793 65.5959 48.1822 65.8342 48.6135 66.001C49.56 66.3661 50.5286 66.417 51.5134 66.1863C52.0409 66.0628 52.529 65.8526 52.9576 65.5141C53.1841 65.3354 53.376 65.1258 53.5149 64.8718C53.7587 64.4261 53.7841 63.9674 53.5836 63.4983C53.5528 63.4269 53.5171 63.3581 53.4836 63.2877H53.4825ZM55.4186 70.0716C55.444 70.0641 55.4586 70.0478 55.4613 70.0213C55.5408 69.9871 55.6197 69.9519 55.6991 69.9194C56.051 69.7743 56.3915 69.6069 56.7175 69.4098C56.7596 69.3844 56.8137 69.3697 56.8256 69.3096C56.7899 69.2722 56.7467 69.2896 56.7083 69.2966C56.1564 69.3979 55.6002 69.4688 55.0413 69.5214C54.4387 69.5782 53.8344 69.5929 53.2317 69.5365C52.5517 69.4732 51.8717 69.4396 51.1891 69.4537C50.628 69.4651 50.0675 69.4661 49.5064 69.4526C48.8757 69.4374 48.2465 69.4678 47.6184 69.5219C47.2482 69.5539 46.8785 69.5745 46.5071 69.5669C45.685 69.5512 44.8731 69.4461 44.0645 69.3058C44.0099 69.2961 43.9516 69.2663 43.8813 69.3204C43.957 69.3974 44.0499 69.4407 44.1364 69.491C44.4959 69.6996 44.878 69.8604 45.2591 70.0223C45.2974 70.0895 45.331 70.1599 45.3742 70.2238C45.5855 70.5331 45.8396 70.8039 46.1277 71.0416C46.5795 71.4142 47.0887 71.6839 47.6368 71.8833C48.2654 72.1118 48.9167 72.2391 49.581 72.2997C49.9248 72.3312 50.2691 72.3669 50.6156 72.3409C51.0464 72.3089 51.4766 72.2759 51.902 72.1963C52.5155 72.082 53.1111 71.9093 53.6722 71.6298C54.3408 71.2973 54.9127 70.8467 55.3402 70.2254C55.3738 70.1767 55.4202 70.1334 55.4192 70.0662V70.0706L55.4186 70.0716Z" fill="url(#paint4_radial_3663_14032)"/>
<path d="M49.1571 20.0482C49.1555 20.0314 49.1523 20.0157 49.1463 20H50.0279C49.7398 20.0574 49.4485 20.0536 49.1571 20.0482Z" fill="#AADDD9"/>
<path d="M51.5318 20C51.5264 20.0157 51.5232 20.032 51.5215 20.0482C51.2297 20.0536 50.9383 20.0563 50.6508 20H51.5323H51.5318Z" fill="#AADDD9"/>
<path d="M70.0957 41.1171C70.3346 41.1853 70.5827 41.1799 70.8265 41.2124C71.0368 41.2406 71.2492 41.2552 71.4605 41.279C71.4924 41.2828 71.5227 41.3023 71.5535 41.3148C71.5346 41.4783 71.5135 41.6414 71.4984 41.8049C71.4913 41.884 71.4546 41.9311 71.3832 41.9604C71.2395 42.0189 71.0973 42.0822 70.953 42.1402C69.2206 42.8404 67.4445 43.4032 65.6354 43.8668C64.3971 44.1841 63.149 44.4538 61.8918 44.6797C61.068 44.8275 60.2421 44.964 59.4113 45.068C58.7692 45.1482 58.1276 45.2348 57.4849 45.3069C57.0131 45.3594 56.5396 45.3946 56.0666 45.433C55.4818 45.4807 54.8969 45.5354 54.311 45.5652C53.604 45.6009 52.8965 45.6275 52.189 45.6486C51.222 45.6778 50.255 45.6854 49.288 45.6703C48.5891 45.6589 47.8902 45.6242 47.1919 45.5977C46.8211 45.5836 46.4503 45.5728 46.0795 45.5419C45.486 45.4926 44.8904 45.4682 44.2974 45.4141C43.4293 45.3345 42.5634 45.2402 41.6986 45.1287C40.217 44.9369 38.7452 44.6927 37.2826 44.3883C35.8453 44.0894 34.4227 43.7319 33.0179 43.3024C31.7953 42.9282 30.5894 42.5063 29.4105 42.0096C29.3629 41.9896 29.3148 41.9696 29.2678 41.9484C29.2262 41.93 29.1927 41.9013 29.1883 41.8542C29.171 41.6657 29.1062 41.4805 29.1565 41.2882C29.6305 41.2422 30.104 41.1956 30.578 41.1496C30.8002 41.1252 31.0223 41.1009 31.245 41.077C31.4504 41.0548 31.6563 41.031 31.8617 41.011C32.2736 40.9709 32.6866 40.9433 33.0963 40.8886C33.2482 40.8685 33.3828 40.8804 33.526 40.9221C34.2222 41.1247 34.9221 41.3142 35.6264 41.4865C36.641 41.7345 37.6631 41.9468 38.6895 42.1342C39.3933 42.2626 40.0987 42.3839 40.8095 42.4711C41.2543 42.5258 41.6959 42.6043 42.1402 42.6596C42.5251 42.7078 42.9121 42.737 43.298 42.7782C43.5466 42.8047 43.7942 42.8394 44.0423 42.8659C44.2563 42.8886 44.472 42.8897 44.6871 42.9163C45.0201 42.9574 45.3601 42.9477 45.693 42.9878C46.1308 43.0408 46.573 43.0051 47.0092 43.0744C47.0432 43.0798 47.0784 43.0782 47.1124 43.0793C47.7421 43.0977 48.3718 43.1221 49.0015 43.1324C49.6237 43.1421 50.2458 43.1383 50.8679 43.1383C51.3084 43.1383 51.7506 43.154 52.1895 43.1259C52.6641 43.0961 53.1392 43.1069 53.6121 43.0728C53.9137 43.0511 54.2186 43.0636 54.5159 43.0219C54.8678 42.9726 55.2245 43.0148 55.5726 42.9385C55.6061 42.9314 55.6412 42.9336 55.6758 42.9331C56.0558 42.9266 56.432 42.8789 56.8087 42.835C57.0401 42.8085 57.2725 42.7966 57.5039 42.7727C57.7352 42.7489 57.9665 42.7229 58.1968 42.6899C58.3762 42.6639 58.5568 42.6525 58.7362 42.6298C59.6686 42.5128 60.5967 42.3698 61.5231 42.2127C62.3907 42.066 63.2522 41.891 64.1117 41.7031C65.1322 41.48 66.1424 41.2178 67.1461 40.9286C67.3391 40.8728 67.5256 40.8463 67.7304 40.8891C67.9564 40.9368 68.1926 40.9351 68.4245 40.959C68.6812 40.9855 68.9374 41.025 69.1947 41.0434C69.4958 41.0646 69.792 41.1323 70.0957 41.1171Z" fill="#374DC0"/>
<path d="M50.3034 60.1443C49.5131 60.1594 48.6321 60.1242 47.7527 60.0717C46.8819 60.0197 46.0133 59.9401 45.1463 59.8388C42.8432 59.5702 40.573 59.1315 38.3347 58.526C36.2132 57.9524 34.1419 57.2337 32.1296 56.3477C31.8577 56.228 31.8588 56.2275 31.8312 55.9318C31.7566 55.1389 31.6837 54.3454 31.6053 53.5531C31.5291 52.7775 31.4453 52.0031 31.3685 51.228C31.3069 50.6079 31.2534 49.9867 31.1923 49.3666C31.1329 48.7638 31.0669 48.161 31.0069 47.5582C30.9642 47.1277 30.928 46.696 30.8853 46.2654C30.8421 45.8262 30.7945 45.387 30.7507 44.9478C30.7388 44.827 30.7313 44.7062 30.7269 44.5849C30.7242 44.5053 30.7626 44.482 30.8442 44.5085C30.8934 44.5242 30.9421 44.5437 30.9907 44.5616C32.996 45.3003 35.05 45.8685 37.138 46.3174C38.4558 46.6007 39.7822 46.8325 41.1157 47.0226C41.9021 47.1347 42.6907 47.2295 43.4815 47.308C44.315 47.3909 45.1495 47.4618 45.9857 47.5154C46.7706 47.5658 47.5554 47.5956 48.3408 47.6248C49.5585 47.6709 50.7769 47.6687 51.9947 47.6416C52.8152 47.6238 53.6351 47.5907 54.454 47.5409C55.3329 47.4873 56.2118 47.4212 57.0885 47.3345C59.5657 47.0897 62.0212 46.7068 64.4487 46.1479C66.2681 45.7287 68.0593 45.2121 69.8139 44.5708C70.1198 44.4592 70.1155 44.443 70.0836 44.7696C70.0085 45.5451 69.9252 46.3201 69.8485 47.0952C69.7879 47.7072 69.7339 48.3192 69.6733 48.9312C69.596 49.7154 69.5139 50.4991 69.436 51.2827C69.3755 51.8947 69.3204 52.5067 69.2604 53.1187C69.2004 53.7307 69.1366 54.3422 69.075 54.9536C69.0377 55.3241 68.9961 55.694 68.968 56.0655C68.9588 56.1874 68.9085 56.2491 68.8015 56.2957C68.2237 56.5481 67.6421 56.7923 67.0545 57.0209C64.6984 57.9367 62.2818 58.6451 59.8084 59.1629C58.6495 59.4055 57.4841 59.6048 56.3112 59.7603C55.575 59.8578 54.8361 59.9341 54.0956 59.9948C52.8638 60.0961 51.6303 60.1535 50.3028 60.1443H50.3034Z" fill="url(#paint5_radial_3663_14032)"/>
<path d="M38.06 70.8999C37.8703 71.1062 37.6816 71.3136 37.4897 71.5184C37.4205 71.592 37.3654 71.6808 37.2741 71.7323C37.1827 71.637 37.127 71.5195 37.0665 71.4046C36.76 70.823 36.4519 70.2418 36.1471 69.6596C35.4612 68.349 34.7774 67.0372 34.0915 65.7261C33.7715 65.1141 33.5688 64.4663 33.4786 63.7812C33.378 63.0176 33.2672 62.2555 33.1613 61.4924C33.0505 60.6952 32.9397 59.8985 32.8289 59.1013C32.8834 59.1257 32.9407 59.1457 32.9926 59.175C33.8385 59.6548 34.7072 60.0881 35.5941 60.4862C35.6406 60.5073 35.6844 60.5349 35.7293 60.5593C35.8893 61.2937 36.0498 62.0281 36.2087 62.763C36.5817 64.4864 36.9541 66.2097 37.327 67.9325C37.4605 68.5494 37.5941 69.1657 37.7297 69.782C37.793 70.0691 37.8816 70.3496 37.9784 70.6275C38.0092 70.7168 38.0324 70.8089 38.0589 70.8999H38.06Z" fill="#171627"/>
<path d="M54.5731 64.5526C54.6172 64.6444 54.6648 64.7341 54.7046 64.8273C54.9682 65.4382 54.9348 66.0364 54.6143 66.6184C54.4317 66.9496 54.1795 67.2229 53.8818 67.456C53.3184 67.8974 52.6769 68.1714 51.9835 68.3325C50.689 68.6333 49.4158 68.5669 48.1718 68.0909C47.6041 67.8734 47.0933 67.5626 46.6783 67.1121C46.2627 66.6608 46.0254 66.1417 46.0609 65.5152C46.0744 65.2751 46.1291 65.047 46.2265 64.828C46.2677 64.7355 46.3146 64.6451 46.3593 64.554C46.7323 64.5696 47.106 64.5738 47.4776 64.602C48.1561 64.6543 48.8353 64.66 49.5146 64.6649C50.4318 64.6713 51.349 64.6698 52.2662 64.6487C53.0016 64.6317 53.7362 64.5801 54.4715 64.5441C54.5049 64.5427 54.539 64.5498 54.5724 64.5526H54.5731Z" fill="url(#paint6_radial_3663_14032)"/>
<path d="M63.3353 71.7377C63.2126 71.6538 63.1283 71.5308 63.0272 71.4252C62.8899 71.2822 62.7558 71.1355 62.6202 70.9903C62.6267 70.9567 62.6288 70.921 62.6407 70.8896C62.8753 70.2922 63.0158 69.6694 63.1488 69.0433C63.4634 67.5647 63.7817 66.0873 64.1028 64.6104C64.3817 63.3273 64.666 62.0459 64.9471 60.7634C64.9617 60.6963 64.9693 60.627 64.9801 60.5587C65.0174 60.5376 65.053 60.5127 65.092 60.4954C65.966 60.1049 66.8222 59.6781 67.6567 59.2085C67.694 59.1874 67.7351 59.1733 67.774 59.156C67.7535 59.3277 67.7362 59.4999 67.7118 59.6711C67.6183 60.3394 67.5232 61.0077 67.4281 61.676C67.3302 62.3611 67.2292 63.0463 67.1346 63.7319C67.04 64.4149 66.854 65.0691 66.5335 65.6811C65.5265 67.6048 64.519 69.528 63.5104 71.4507C63.4585 71.5498 63.3937 71.6424 63.3347 71.7382L63.3353 71.7377Z" fill="#171627"/>
<path d="M53.4825 63.2874C53.516 63.3578 53.5522 63.4266 53.5825 63.4981C53.783 63.9666 53.7576 64.4253 53.5139 64.8716C53.375 65.1256 53.1831 65.3352 52.9566 65.5139C52.528 65.8524 52.0399 66.0625 51.5123 66.186C50.5275 66.4167 49.5589 66.3658 48.6125 66.0008C48.1806 65.834 47.792 65.5957 47.4763 65.2501C47.1601 64.9041 46.9796 64.506 47.0066 64.0256C47.0169 63.8414 47.0585 63.6665 47.1325 63.4986C47.1639 63.4277 47.1995 63.3583 47.2336 63.2885C47.5174 63.3004 47.8017 63.3036 48.0844 63.3253C48.6006 63.3654 49.1173 63.3697 49.634 63.3735C50.3318 63.3784 51.0297 63.3773 51.7275 63.3611C52.2869 63.3481 52.8458 63.3085 53.4052 63.2809C53.4306 63.2798 53.4566 63.2852 53.482 63.2874H53.4825Z" fill="#FEE3E3"/>
<path d="M32.83 59.1009C32.9408 59.8981 33.0511 60.6948 33.1625 61.492C33.2684 62.2551 33.3792 63.0171 33.4797 63.7808C33.57 64.4664 33.7727 65.1141 34.0927 65.7256C34.7786 67.0363 35.4624 68.3485 36.1483 69.6592C36.4531 70.2419 36.7607 70.8225 37.0677 71.4042C37.1282 71.519 37.1844 71.6365 37.2753 71.7318C37.1401 71.9035 36.9536 71.916 36.7596 71.8943C36.5856 71.8748 36.4564 71.7779 36.3596 71.6354C36.3256 71.5856 36.2996 71.5304 36.2715 71.4768C35.264 69.5552 34.2548 67.6336 33.2495 65.711C32.9381 65.1158 32.7446 64.4827 32.6522 63.816C32.5079 62.7799 32.3522 61.7449 32.2036 60.7094C32.102 59.9988 32.0041 59.2877 31.9047 58.5771C31.9458 58.5864 31.9928 58.5858 32.0263 58.6064C32.2944 58.7716 32.5765 58.9129 32.8306 59.1009H32.83Z" fill="#8495F2"/>
<path d="M63.3356 71.7375C63.3945 71.6417 63.4588 71.5496 63.5113 71.45C64.5199 69.5273 65.5274 67.6041 66.5344 65.6804C66.8549 65.0684 67.0409 64.4142 67.1354 63.7312C67.23 63.0456 67.3316 62.361 67.4289 61.6753C67.5241 61.007 67.6192 60.3392 67.7127 59.6704C67.7365 59.4992 67.7543 59.327 67.7749 59.1553C68.0549 58.9869 68.3343 58.8174 68.6143 58.65C68.6354 58.6376 68.664 58.6375 68.6889 58.6316C68.6294 59.06 68.5705 59.4884 68.51 59.9168C68.4154 60.5851 68.3203 61.2534 68.224 61.9212C68.1203 62.6404 68.0235 63.3613 67.9084 64.0789C67.8192 64.6384 67.6349 65.1702 67.3727 65.6717C66.3587 67.6117 65.3415 69.5501 64.3253 71.4884C64.2972 71.542 64.2696 71.5962 64.2345 71.6455C64.135 71.7858 64.0031 71.88 63.8286 71.8952C63.6437 71.9114 63.4643 71.8989 63.3356 71.7359V71.7375Z" fill="#8495F2"/>
<path d="M57.5281 69.5112C57.5296 69.6627 57.465 69.7613 57.4184 69.8734C56.8243 71.2865 56.0305 72.3116 55.1007 73.0681C54.3211 73.7026 53.4934 74.0956 52.641 74.3568C52.0499 74.5367 51.4521 74.6131 50.8535 74.6857C50.3721 74.7437 49.8936 74.6623 49.416 74.5921C48.4929 74.4541 47.5879 74.1646 46.7144 73.6447C45.9529 73.1925 45.2454 72.579 44.6175 71.7301C44.2172 71.1892 43.8642 70.5732 43.5705 69.8697C43.5105 69.7243 43.4631 69.5642 43.4106 69.4114C43.5247 69.4656 43.6404 69.5149 43.7538 69.5752C44.0617 69.7379 44.3697 69.898 44.6866 70.0089C45.663 70.3502 46.6559 70.4648 47.648 70.5584C48.3893 70.6286 49.1328 70.6631 49.8756 70.6804C51.5182 70.7173 53.1585 70.6299 54.795 70.3711C55.6444 70.2368 56.4826 70.0225 57.2892 69.5457C57.3636 69.5013 57.4432 69.42 57.5281 69.5124V69.5112Z" fill="url(#paint7_radial_3663_14032)"/>
<path d="M55.4186 70.0673C55.4196 70.1339 55.3732 70.1772 55.3396 70.2265C54.9121 70.8477 54.3408 71.2983 53.6716 71.6309C53.1106 71.9098 52.5149 72.0826 51.9014 72.1974C51.476 72.2765 51.0458 72.31 50.615 72.342C50.2685 72.3674 49.9242 72.3317 49.5804 72.3008C48.9161 72.2402 48.2648 72.1129 47.6362 71.8843C47.0881 71.6856 46.579 71.4159 46.1271 71.0427C45.839 70.805 45.5849 70.5342 45.3736 70.2249C45.3304 70.161 45.2963 70.0906 45.2585 70.0234C45.3406 70.0473 45.4239 70.0689 45.5055 70.0955C45.7271 70.167 45.9487 70.2374 46.1768 70.2861C46.8795 70.4361 47.594 70.4865 48.3081 70.5277C48.8416 70.5585 49.3767 70.5737 49.9112 70.5813C51.0933 70.5975 52.2738 70.5591 53.4516 70.4453C54.0629 70.3863 54.6662 70.2921 55.2467 70.0825C55.3002 70.063 55.3575 70.0272 55.4186 70.0678V70.0673Z" fill="#FFE8E8"/>
<path d="M55.4186 70.0672C55.3576 70.0266 55.3003 70.0623 55.2468 70.0818C54.6662 70.292 54.063 70.3862 53.4517 70.4447C52.2739 70.5584 51.0934 70.5969 49.9113 70.5806C49.3767 70.573 48.8416 70.5579 48.3081 70.527C47.5936 70.4853 46.8796 70.4355 46.1769 70.2855C45.9488 70.2367 45.7272 70.1658 45.5056 70.0948C45.4239 70.0688 45.3407 70.0466 45.2585 70.0228C44.8769 69.8609 44.4948 69.7005 44.1359 69.4915C44.0489 69.4411 43.9564 69.3978 43.8808 69.3209C43.951 69.2662 44.0094 69.2965 44.064 69.3063C44.8726 69.4465 45.685 69.5516 46.5066 69.5673C46.8785 69.5744 47.2476 69.5543 47.6179 69.5224C48.246 69.4682 48.8751 69.4379 49.5059 69.453C50.067 69.4666 50.6275 69.4655 51.1886 69.4541C51.8707 69.44 52.5512 69.4736 53.2312 69.537C53.8344 69.5933 54.4381 69.5787 55.0408 69.5218C55.5992 69.4693 56.1554 69.3983 56.7078 69.2971C56.7462 69.29 56.7894 69.2727 56.8251 69.3101C56.8132 69.3702 56.7591 69.3848 56.717 69.4103C56.391 69.6074 56.0505 69.7742 55.6986 69.9199C55.6192 69.9529 55.5403 69.9876 55.4608 70.0217C55.4386 70.032 55.3997 70.0277 55.4181 70.0721V70.0677L55.4186 70.0672Z" fill="url(#paint8_radial_3663_14032)"/>
<path d="M55.4186 70.0724C55.4001 70.0275 55.4394 70.0319 55.4618 70.0215C55.459 70.0483 55.4443 70.0652 55.4186 70.0724Z" fill="#AADDD9"/>
</g>
<defs>
<radialGradient id="paint0_radial_3663_14032" cx="0" cy="0" r="1" gradientUnits="userSpaceOnUse" gradientTransform="translate(50 54) rotate(77.4191) scale(119.366)">
<stop offset="0.330862" stop-color="#CCEDFF"/>
<stop offset="1" stop-color="#00A3FF"/>
</radialGradient>
<radialGradient id="paint1_radial_3663_14032" cx="0" cy="0" r="1" gradientUnits="userSpaceOnUse" gradientTransform="translate(50 50) rotate(90) scale(70.5)">
<stop stop-color="white"/>
<stop offset="0.273875" stop-color="white" stop-opacity="0.7"/>
<stop offset="1" stop-color="#2859D5" stop-opacity="0.8"/>
</radialGradient>
<radialGradient id="paint2_radial_3663_14032" cx="0" cy="0" r="1" gradientUnits="userSpaceOnUse" gradientTransform="translate(49.8195 27.7241) rotate(-87.28) scale(13.6953 27.4122)">
<stop stop-color="#546DF1" stop-opacity="0.4"/>
<stop offset="1" stop-color="#546DF1"/>
</radialGradient>
<radialGradient id="paint3_radial_3663_14032" cx="0" cy="0" r="1" gradientTransform="matrix(0.838596 -13.0692 35.33 1.2428 48.9142 48.6463)" gradientUnits="userSpaceOnUse">
<stop stop-color="#546DF1" stop-opacity="0.4"/>
<stop offset="1" stop-color="#546DF1"/>
</radialGradient>
<radialGradient id="paint4_radial_3663_14032" cx="0" cy="0" r="1" gradientUnits="userSpaceOnUse" gradientTransform="translate(50.3559 70.2793) rotate(90) scale(9.72074 14.625)">
<stop stop-color="#FFF2F2"/>
<stop offset="1" stop-color="#F2CCCC"/>
</radialGradient>
<radialGradient id="paint5_radial_3663_14032" cx="0" cy="0" r="1" gradientUnits="userSpaceOnUse" gradientTransform="translate(50.4124 52.3229) rotate(90) scale(7.82488 19.6856)">
<stop stop-color="#77749B"/>
<stop offset="1"/>
</radialGradient>
<radialGradient id="paint6_radial_3663_14032" cx="0" cy="0" r="1" gradientUnits="userSpaceOnUse" gradientTransform="translate(50.4692 65.2057) rotate(90) scale(2.64704 2.80824)">
<stop stop-color="#EF837C"/>
<stop offset="1" stop-color="#FFBB9D" stop-opacity="0"/>
</radialGradient>
<radialGradient id="paint7_radial_3663_14032" cx="0" cy="0" r="1" gradientUnits="userSpaceOnUse" gradientTransform="translate(50.4693 70.2937) rotate(90) scale(3.52939 4.49319)">
<stop stop-color="#F45773"/>
<stop offset="1" stop-color="#FFBB9D" stop-opacity="0"/>
</radialGradient>
<radialGradient id="paint8_radial_3663_14032" cx="0" cy="0" r="1" gradientUnits="userSpaceOnUse" gradientTransform="translate(50.3529 69.5031) rotate(92.2837) scale(3.1737 15.1176)">
<stop stop-color="#F69C9C"/>
<stop offset="1" stop-color="#FFBB9D" stop-opacity="0"/>
</radialGradient>
<clipPath id="clip0_3663_14032">
<rect width="100" height="100" rx="50" fill="white"/>
</clipPath>
</defs>
</svg>
